  0
SECTION
  2
HEADER
  9
$ACADVER
  1
AC1014
  9
$ACADMAINTVER
 70
     9
  9
$DWGCODEPAGE
  3
ANSI_1252
  9
$INSBASE
 10
0.0
 20
0.0
 30
0.0
  9
$EXTMIN
 10
-0.0000063375054395
 20
0.0000112267408596
 30
0.0
  9
$EXTMAX
 10
77.99999366249456
 20
78.00001122674087
 30
0.0
  9
$LIMMIN
 10
0.0
 20
0.0
  9
$LIMMAX
 10
12.0
 20
9.0
  9
$ORTHOMODE
 70
     0
  9
$REGENMODE
 70
     1
  9
$FILLMODE
 70
     1
  9
$QTEXTMODE
 70
     0
  9
$MIRRTEXT
 70
     0
  9
$DRAGMODE
 70
     2
  9
$LTSCALE
 40
1.0
  9
$OSMODE
 70
   511
  9
$ATTMODE
 70
     1
  9
$TEXTSIZE
 40
0.2
  9
$TRACEWID
 40
0.05
  9
$TEXTSTYLE
  7
NOTES
  9
$CLAYER
  8
0
  9
$CELTYPE
  6
BYLAYER
  9
$CECOLOR
 62
   256
  9
$CELTSCALE
 40
1.0
  9
$DELOBJ
 70
     1
  9
$DISPSILH
 70
     0
  9
$DIMSCALE
 40
1.0
  9
$DIMASZ
 40
3.0
  9
$DIMEXO
 40
1.5
  9
$DIMDLI
 40
6.0
  9
$DIMRND
 40
0.0
  9
$DIMDLE
 40
0.0
  9
$DIMEXE
 40
3.0
  9
$DIMTP
 40
0.0
  9
$DIMTM
 40
0.0
  9
$DIMTXT
 40
3.0
  9
$DIMCEN
 40
3.0
  9
$DIMTSZ
 40
0.0
  9
$DIMTOL
 70
     0
  9
$DIMLIM
 70
     0
  9
$DIMTIH
 70
     0
  9
$DIMTOH
 70
     0
  9
$DIMSE1
 70
     0
  9
$DIMSE2
 70
     0
  9
$DIMTAD
 70
     1
  9
$DIMZIN
 70
     3
  9
$DIMBLK
  1

  9
$DIMASO
 70
     1
  9
$DIMSHO
 70
     1
  9
$DIMPOST
  1

  9
$DIMAPOST
  1

  9
$DIMALT
 70
     0
  9
$DIMALTD
 70
     2
  9
$DIMALTF
 40
25.4
  9
$DIMLFAC
 40
1.0
  9
$DIMTOFL
 70
     0
  9
$DIMTVP
 40
0.0
  9
$DIMTIX
 70
     0
  9
$DIMSOXD
 70
     0
  9
$DIMSAH
 70
     0
  9
$DIMBLK1
  1

  9
$DIMBLK2
  1

  9
$DIMSTYLE
  2
CIVIL-METRIC
  9
$DIMCLRD
 70
     0
  9
$DIMCLRE
 70
     0
  9
$DIMCLRT
 70
     0
  9
$DIMTFAC
 40
1.0
  9
$DIMGAP
 40
2.0
  9
$DIMJUST
 70
     0
  9
$DIMSD1
 70
     0
  9
$DIMSD2
 70
     0
  9
$DIMTOLJ
 70
     1
  9
$DIMTZIN
 70
     0
  9
$DIMALTZ
 70
     0
  9
$DIMALTTZ
 70
     0
  9
$DIMFIT
 70
     5
  9
$DIMUPT
 70
     0
  9
$DIMUNIT
 70
     2
  9
$DIMDEC
 70
     2
  9
$DIMTDEC
 70
     2
  9
$DIMALTU
 70
     2
  9
$DIMALTTD
 70
     2
  9
$DIMTXSTY
  7
STANDARD
  9
$DIMAUNIT
 70
     0
  9
$LUNITS
 70
     2
  9
$LUPREC
 70
     4
  9
$SKETCHINC
 40
0.1
  9
$FILLETRAD
 40
0.0
  9
$AUNITS
 70
     4
  9
$AUPREC
 70
     5
  9
$MENU
  1
.
  9
$ELEVATION
 40
0.0
  9
$PELEVATION
 40
0.0
  9
$THICKNESS
 40
0.0
  9
$LIMCHECK
 70
     0
  9
$CHAMFERA
 40
0.0
  9
$CHAMFERB
 40
0.0
  9
$CHAMFERC
 40
0.0
  9
$CHAMFERD
 40
0.0
  9
$SKPOLY
 70
     0
  9
$TDCREATE
 40
2458431.131261574
  9
$TDUPDATE
 40
2458432.00637934
  9
$TDINDWG
 40
0.000000081
  9
$TDUSRTIMER
 40
0.0000885069
  9
$USRTIMER
 70
     1
  9
$ANGBASE
 50
0.0
  9
$ANGDIR
 70
     0
  9
$PDMODE
 70
     0
  9
$PDSIZE
 40
0.0
  9
$PLINEWID
 40
0.0
  9
$COORDS
 70
     1
  9
$SPLFRAME
 70
     0
  9
$SPLINETYPE
 70
     6
  9
$SPLINESEGS
 70
     8
  9
$ATTDIA
 70
     0
  9
$ATTREQ
 70
     1
  9
$HANDLING
 70
     1
  9
$HANDSEED
  5
994
  9
$SURFTAB1
 70
     6
  9
$SURFTAB2
 70
     6
  9
$SURFTYPE
 70
     6
  9
$SURFU
 70
     6
  9
$SURFV
 70
     6
  9
$UCSNAME
  2

  9
$UCSORG
 10
0.0
 20
0.0
 30
0.0
  9
$UCSXDIR
 10
1.0
 20
0.0
 30
0.0
  9
$UCSYDIR
 10
0.0
 20
1.0
 30
0.0
  9
$PUCSNAME
  2

  9
$PUCSORG
 10
0.0
 20
0.0
 30
0.0
  9
$PUCSXDIR
 10
1.0
 20
0.0
 30
0.0
  9
$PUCSYDIR
 10
0.0
 20
1.0
 30
0.0
  9
$USERI1
 70
     0
  9
$USERI2
 70
     0
  9
$USERI3
 70
     0
  9
$USERI4
 70
     0
  9
$USERI5
 70
     0
  9
$USERR1
 40
0.0
  9
$USERR2
 40
0.0
  9
$USERR3
 40
0.0
  9
$USERR4
 40
0.0
  9
$USERR5
 40
0.0
  9
$WORLDVIEW
 70
     1
  9
$SHADEDGE
 70
     3
  9
$SHADEDIF
 70
    70
  9
$TILEMODE
 70
     1
  9
$MAXACTVP
 70
    64
  9
$PINSBASE
 10
0.0
 20
0.0
 30
0.0
  9
$PLIMCHECK
 70
     0
  9
$PEXTMIN
 10
0.62886676639706
 20
0.7999999523162842
 30
0.0
  9
$PEXTMAX
 10
9.028866384927335
 20
7.199999570846558
 30
0.0
  9
$PLIMMIN
 10
0.0
 20
0.0
  9
$PLIMMAX
 10
0.0
 20
0.0
  9
$UNITMODE
 70
     0
  9
$VISRETAIN
 70
     1
  9
$PLINEGEN
 70
     0
  9
$PSLTSCALE
 70
     1
  9
$TREEDEPTH
 70
  3020
  9
$PICKSTYLE
 70
     1
  9
$CMLSTYLE
  2
STANDARD
  9
$CMLJUST
 70
     0
  9
$CMLSCALE
 40
1.0
  9
$PROXYGRAPHICS
 70
     1
  9
$MEASUREMENT
 70
     1
  0
ENDSEC
  0
SECTION
  2
CLASSES
  0
CLASS
  1
ACDBDICTIONARYWDFLT
  2
AcDbDictionaryWithDefault
  3
ObjectDBX Classes
 90
        0
280
     0
281
     0
  0
CLASS
  1
DICTIONARYVAR
  2
AcDbDictionaryVar
  3
ObjectDBX Classes
 90
        0
280
     0
281
     0
  0
CLASS
  1
TABLESTYLE
  2
AcDbTableStyle
  3
ObjectDBX Classes
 90
     4095
280
     0
281
     0
  0
CLASS
  1
MATERIAL
  2
AcDbMaterial
  3
ObjectDBX Classes
 90
     1153
280
     0
281
     0
  0
CLASS
  1
VISUALSTYLE
  2
AcDbVisualStyle
  3
ObjectDBX Classes
 90
     4095
280
     0
281
     0
  0
CLASS
  1
SCALE
  2
AcDbScale
  3
ObjectDBX Classes
 90
     1153
280
     0
281
     0
  0
CLASS
  1
MLEADERSTYLE
  2
AcDbMLeaderStyle
  3
ACDB_MLEADERSTYLE_CLASS
 90
     4095
280
     0
281
     0
  0
CLASS
  1
CELLSTYLEMAP
  2
AcDbCellStyleMap
  3
ObjectDBX Classes
 90
     1152
280
     0
281
     0
  0
CLASS
  1
EXACXREFPANELOBJECT
  2
ExAcXREFPanelObject
  3
EXAC_ESW
 90
     1025
280
     1
281
     0
  0
CLASS
  1
NPOCOLLECTION
  2
AcDbImpNonPersistentObjectsCollection
  3
ObjectDBX Classes
 90
     1153
280
     1
281
     0
  0
CLASS
  1
LAYER_INDEX
  2
AcDbLayerIndex
  3
ObjectDBX Classes
 90
        0
280
     0
281
     0
  0
CLASS
  1
SPATIAL_INDEX
  2
AcDbSpatialIndex
  3
AutoCAD 2000
 90
        0
280
     0
281
     0
  0
CLASS
  1
IDBUFFER
  2
AcDbIdBuffer
  3
ObjectDBX Classes
 90
        0
280
     0
281
     0
  0
CLASS
  1
DIMASSOC
  2
AcDbDimAssoc
  3
"AcDbDimAssoc|Product Desc:     AcDim ARX App For Dimension|Company:          Autodesk, Inc.|WEB Address:      www.autodesk.com"
 90
        0
280
     0
281
     0
  0
CLASS
  1
IMAGEDEF
  2
AcDbRasterImageDef
  3
ISM
 90
        0
280
     0
281
     0
  0
CLASS
  1
RASTERVARIABLES
  2
AcDbRasterVariables
  3
ISM
 90
        0
280
     0
281
     0
  0
CLASS
  1
IMAGEDEF_REACTOR
  2
AcDbRasterImageDefReactor
  3
ISM
 90
        1
280
     0
281
     0
  0
CLASS
  1
IMAGE
  2
AcDbRasterImage
  3
ISM
 90
      127
280
     0
281
     1
  0
CLASS
  1
PDFDEFINITION
  2
AcDbPdfDefinition
  3
ObjectDBX Classes
 90
     1153
280
     0
281
     0
  0
CLASS
  1
PDFREFERENCE
  2
AcDbPdfReference
  3
ObjectDBX Classes
 90
     1153
280
     0
281
     1
  0
CLASS
  1
DWFDEFINITION
  2
AcDbDwfDefinition
  3
ObjectDBX Classes
 90
     1153
280
     0
281
     0
  0
CLASS
  1
DWFREFERENCE
  2
AcDbDwfReference
  3
ObjectDBX Classes
 90
     1153
280
     0
281
     1
  0
CLASS
  1
DGNDEFINITION
  2
AcDbDgnDefinition
  3
ObjectDBX Classes
 90
     1153
280
     0
281
     0
  0
CLASS
  1
DGNREFERENCE
  2
AcDbDgnReference
  3
ObjectDBX Classes
 90
     1153
280
     0
281
     1
  0
CLASS
  1
SUN
  2
AcDbSun
  3
SCENEOE
 90
     1153
280
     0
281
     0
  0
CLASS
  1
XRECORD
  2
AcDbXrecord
  3
ObjectDBX Classes
 90
        0
280
     0
281
     0
  0
CLASS
  1
LWPOLYLINE
  2
AcDbPolyline
  3
ObjectDBX Classes
 90
        0
280
     0
281
     1
  0
CLASS
  1
HATCH
  2
AcDbHatch
  3
ObjectDBX Classes
 90
        0
280
     0
281
     1
  0
ENDSEC
  0
SECTION
  2
TABLES
  0
TABLE
  2
VPORT
  5
8
330
0
100
AcDbSymbolTable
 70
     1
  0
VPORT
  5
5EF
330
8
100
AcDbSymbolTableRecord
100
AcDbViewportTableRecord
  2
*ACTIVE
 70
     0
 10
0.0
 20
0.0
 11
1.0
 21
1.0
 12
52.57327314183318
 22
38.03981678946434
 13
0.0
 23
0.0
 14
10.0
 24
10.0
 15
10.0
 25
10.0
 16
0.0
 26
0.0
 36
1.0
 17
0.0
 27
0.0
 37
0.0
 40
120.010157419354
 41
2.117717003567182
 42
50.0
 43
0.0
 44
0.0
 50
0.0
 51
0.0
 71
    16
 72
   100
 73
     1
 74
     3
 75
     0
 76
     0
 77
     0
 78
     0
  0
ENDTAB
  0
TABLE
  2
LTYPE
  5
5F
330
0
100
AcDbSymbolTable
 70
     5
  0
LTYPE
  5
14
330
5F
100
AcDbSymbolTableRecord
100
AcDbLinetypeTableRecord
  2
BYBLOCK
 70
     0
  3

 72
    65
 73
     0
 40
0.0
  0
LTYPE
  5
15
330
5F
100
AcDbSymbolTableRecord
100
AcDbLinetypeTableRecord
  2
BYLAYER
 70
     0
  3

 72
    65
 73
     0
 40
0.0
  0
LTYPE
  5
16
330
5F
100
AcDbSymbolTableRecord
100
AcDbLinetypeTableRecord
  2
CONTINUOUS
 70
     0
  3
Solid line
 72
    65
 73
     0
 40
0.0
  0
LTYPE
  5
1B1
330
5F
100
AcDbSymbolTableRecord
100
AcDbLinetypeTableRecord
  2
CENTER
 70
     0
  3
Center ____ _ ____ _ ____ _ ____ _ ____ _ ____
 72
    65
 73
     4
 40
2.0
 49
1.25
 74
     0
 49
-0.25
 74
     0
 49
0.25
 74
     0
 49
-0.25
 74
     0
  0
LTYPE
  5
1B2
330
5F
100
AcDbSymbolTableRecord
100
AcDbLinetypeTableRecord
  2
DASHED
 70
     0
  3
Dashed __ __ __ __ __ __ __ __ __ __ __ __ __ _
 72
    65
 73
     2
 40
0.75
 49
0.5
 74
     0
 49
-0.25
 74
     0
  0
LTYPE
  5
1B3
330
5F
100
AcDbSymbolTableRecord
100
AcDbLinetypeTableRecord
  2
PHANTOM
 70
     0
  3
Phantom ______  __  __  ______  __  __  ______
 72
    65
 73
     6
 40
2.5
 49
1.25
 74
     0
 49
-0.25
 74
     0
 49
0.25
 74
     0
 49
-0.25
 74
     0
 49
0.25
 74
     0
 49
-0.25
 74
     0
  0
LTYPE
  5
39E
330
5F
100
AcDbSymbolTableRecord
100
AcDbLinetypeTableRecord
  2
HIDDEN
 70
     0
  3
Hidden __ __ __ __ __ __ __ __ __ __ __ __ __ __
 72
    65
 73
     2
 40
9.525
 49
6.35
 74
     0
 49
-3.175
 74
     0
  0
ENDTAB
  0
TABLE
  2
LAYER
  5
2
330
0
100
AcDbSymbolTable
 70
     3
  0
LAYER
  5
10
330
2
100
AcDbSymbolTableRecord
100
AcDbLayerTableRecord
  2
0
 70
     0
 62
     7
  6
CONTINUOUS
  0
LAYER
  5
1B4
330
2
100
AcDbSymbolTableRecord
100
AcDbLayerTableRecord
  2
VIEW_PORT
 70
     0
 62
     7
  6
CONTINUOUS
  0
LAYER
  5
21D
330
2
100
AcDbSymbolTableRecord
100
AcDbLayerTableRecord
  2
DEFPOINTS
 70
     0
 62
     7
  6
CONTINUOUS
  0
ENDTAB
  0
TABLE
  2
STYLE
  5
3
330
0
100
AcDbSymbolTable
 70
     3
  0
STYLE
  5
11
330
3
100
AcDbSymbolTableRecord
100
AcDbTextStyleTableRecord
  2
STANDARD
 70
     0
 40
0.0
 41
1.0
 50
0.0
 71
     0
 42
0.2
  3
arial.ttf
  4

  0
STYLE
  5
DC
330
3
100
AcDbSymbolTableRecord
100
AcDbTextStyleTableRecord
  2
ANNOTATIVE
 70
     0
 40
0.0
 41
1.0
 50
0.0
 71
     0
 42
0.2
  3
arial.ttf
  4

  0
STYLE
  5
178
330
3
100
AcDbSymbolTableRecord
100
AcDbTextStyleTableRecord
  2
NOTES
 70
     0
 40
3.0
 41
1.0
 50
0.0
 71
     0
 42
0.2
  3
arial.ttf
  4

  0
ENDTAB
  0
TABLE
  2
VIEW
  5
6
330
0
100
AcDbSymbolTable
 70
     0
  0
ENDTAB
  0
TABLE
  2
UCS
  5
7
330
0
100
AcDbSymbolTable
 70
     0
  0
ENDTAB
  0
TABLE
  2
APPID
  5
9
330
0
100
AcDbSymbolTable
 70
    11
  0
APPID
  5
12
330
9
100
AcDbSymbolTableRecord
100
AcDbRegAppTableRecord
  2
ACAD
 70
     0
  0
APPID
  5
DD
330
9
100
AcDbSymbolTableRecord
100
AcDbRegAppTableRecord
  2
ACADANNOPO
 70
     0
  0
APPID
  5
DE
330
9
100
AcDbSymbolTableRecord
100
AcDbRegAppTableRecord
  2
ACADANNOTATIVE
 70
     0
  0
APPID
  5
DF
330
9
100
AcDbSymbolTableRecord
100
AcDbRegAppTableRecord
  2
ACAD_DSTYLE_DIMJAG
 70
     0
  0
APPID
  5
E0
330
9
100
AcDbSymbolTableRecord
100
AcDbRegAppTableRecord
  2
ACAD_DSTYLE_DIMTALN
 70
     0
  0
APPID
  5
107
330
9
100
AcDbSymbolTableRecord
100
AcDbRegAppTableRecord
  2
ACAD_MLEADERVER
 70
     0
  0
APPID
  5
1B5
330
9
100
AcDbSymbolTableRecord
100
AcDbRegAppTableRecord
  2
ACAECLAYERSTANDARD
 70
     0
  0
APPID
  5
1BA
330
9
100
AcDbSymbolTableRecord
100
AcDbRegAppTableRecord
  2
ACAD_EXEMPT_FROM_CAD_STAND
 70
     0
  0
APPID
  5
237
330
9
100
AcDbSymbolTableRecord
100
AcDbRegAppTableRecord
  2
ACAD_DSTYLE_DIMBREAK
 70
     0
  0
APPID
  5
28E
330
9
100
AcDbSymbolTableRecord
100
AcDbRegAppTableRecord
  2
ACAD_PSEXT
 70
     0
  0
APPID
  5
4C4
330
9
100
AcDbSymbolTableRecord
100
AcDbRegAppTableRecord
  2
HATCHBACKGROUNDCOLOR
 70
     0
  0
ENDTAB
  0
TABLE
  2
DIMSTYLE
  5
A
330
0
100
AcDbSymbolTable
 70
     3
  0
DIMSTYLE
105
27
330
A
100
AcDbSymbolTableRecord
100
AcDbDimStyleTableRecord
  2
STANDARD
 70
     0
  3

  4

  5

  6

  7

 40
1.0
 41
3.0
 42
2.0
 43
9.0
 44
5.0
 45
0.0
 46
0.0
 47
0.0
 48
0.0
140
3.0
141
2.0
142
0.0
143
25.4
144
1.0
145
0.0
146
1.0
147
2.0
 71
     0
 72
     0
 73
     1
 74
     1
 75
     0
 76
     0
 77
     0
 78
     0
170
     0
171
     2
172
     0
173
     0
174
     0
175
     0
176
     0
177
     0
178
     0
270
     2
271
     4
272
     4
273
     2
274
     2
340
11
275
     0
280
     0
281
     0
282
     0
283
     1
284
     0
285
     0
286
     0
287
     3
288
     0
1001
ACAD_DSTYLE_DIMJAG
1070
   388
1040
38.0
1001
ACAD_DSTYLE_DIMBREAK
1070
   391
1040
90.0
1001
ACAD_DSTYLE_DIMTALN
1070
   392
1070
     0
  0
DIMSTYLE
105
E1
330
A
100
AcDbSymbolTableRecord
100
AcDbDimStyleTableRecord
  2
ANNOTATIVE
 70
     0
  3

  4

  5

  6

  7

 40
0.0
 41
3.0
 42
2.5
 43
10.0
 44
5.0
 45
0.0
 46
0.0
 47
0.0
 48
0.0
140
3.0
141
2.0
142
0.0
143
25.4
144
1.0
145
0.0
146
1.0
147
2.0
 71
     0
 72
     0
 73
     1
 74
     1
 75
     0
 76
     0
 77
     0
 78
     0
170
     0
171
     2
172
     0
173
     0
174
     0
175
     0
176
     0
177
     0
178
     0
270
     2
271
     4
272
     4
273
     2
274
     2
340
11
275
     0
280
     0
281
     0
282
     0
283
     1
284
     0
285
     0
286
     0
287
     3
288
     0
1001
ACADANNOTATIVE
1000
AnnotativeData
1002
{
1070
     1
1070
     1
1002
}
1001
ACAD_DSTYLE_DIMJAG
1070
   388
1040
38.0
1001
ACAD_DSTYLE_DIMBREAK
1070
   391
1040
90.0
1001
ACAD_DSTYLE_DIMTALN
1070
   392
1070
     0
  0
DIMSTYLE
105
242
330
A
100
AcDbSymbolTableRecord
100
AcDbDimStyleTableRecord
  2
CIVIL-METRIC
 70
     0
  3

  4

  5

  6

  7

 40
1.0
 41
3.0
 42
1.5
 43
6.0
 44
3.0
 45
0.0
 46
0.0
 47
0.0
 48
0.0
140
3.0
141
3.0
142
0.0
143
25.4
144
1.0
145
0.0
146
1.0
147
2.0
 71
     0
 72
     0
 73
     0
 74
     0
 75
     0
 76
     0
 77
     1
 78
     3
170
     0
171
     2
172
     0
173
     0
174
     0
175
     0
176
     0
177
     0
178
     0
179
     2
270
     2
271
     2
272
     2
273
     2
274
     2
340
11
275
     0
280
     0
281
     0
282
     0
283
     1
284
     0
285
     0
286
     0
287
     3
288
     0
1001
ACAD_DSTYLE_DIMBREAK
1070
   391
1040
3.0
1001
ACAD_DSTYLE_DIMJAG
1070
   388
1040
38.0
1001
ACAD_DSTYLE_DIMTALN
1070
   392
1070
     0
  0
ENDTAB
  0
TABLE
  2
BLOCK_RECORD
  5
1
330
0
100
AcDbSymbolTable
 70
     3
  0
BLOCK_RECORD
  5
1F
330
1
100
AcDbSymbolTableRecord
100
AcDbBlockTableRecord
  2
*MODEL_SPACE
  0
BLOCK_RECORD
  5
58
330
1
100
AcDbSymbolTableRecord
100
AcDbBlockTableRecord
  2
*PAPER_SPACE
  0
BLOCK_RECORD
  5
238
330
1
100
AcDbSymbolTableRecord
100
AcDbBlockTableRecord
  2
_ARCHTICK
  0
BLOCK_RECORD
  5
23C
330
1
100
AcDbSymbolTableRecord
100
AcDbBlockTableRecord
  2
_OPEN30
  0
BLOCK_RECORD
  5
694
330
1
100
AcDbSymbolTableRecord
100
AcDbBlockTableRecord
  2
A$C1006746607
  0
ENDTAB
  0
ENDSEC
  0
SECTION
  2
BLOCKS
  0
BLOCK
  5
20
330
1F
100
AcDbEntity
  8
0
100
AcDbBlockBegin
  2
*MODEL_SPACE
 70
     0
 10
0.0
 20
0.0
 30
0.0
  3
*MODEL_SPACE
  1

  0
ENDBLK
  5
21
330
1F
100
AcDbEntity
  8
0
100
AcDbBlockEnd
  0
BLOCK
  5
5A
330
58
100
AcDbEntity
 67
     1
  8
0
100
AcDbBlockBegin
  2
*PAPER_SPACE
 70
     0
 10
0.0
 20
0.0
 30
0.0
  3
*PAPER_SPACE
  1

  0
ENDBLK
  5
5B
330
58
100
AcDbEntity
 67
     1
  8
0
100
AcDbBlockEnd
  0
BLOCK
  5
23A
330
238
100
AcDbEntity
  8
0
100
AcDbBlockBegin
  2
_ARCHTICK
 70
     0
 10
0.0
 20
0.0
 30
0.0
  3
_ARCHTICK
  1

  0
LWPOLYLINE
  5
239
330
238
100
AcDbEntity
  8
0
  6
BYBLOCK
 62
     0
100
AcDbPolyline
 90
        2
 70
     0
 43
0.15
 10
-0.5
 20
-0.5
 10
0.5
 20
0.5
  0
ENDBLK
  5
23B
330
238
100
AcDbEntity
  8
0
100
AcDbBlockEnd
  0
BLOCK
  5
240
330
23C
100
AcDbEntity
  8
0
100
AcDbBlockBegin
  2
_OPEN30
 70
     0
 10
0.0
 20
0.0
 30
0.0
  3
_OPEN30
  1

  0
LINE
  5
23D
330
23C
100
AcDbEntity
  8
0
  6
BYBLOCK
 62
     0
100
AcDbLine
 10
-1.0
 20
0.26794919
 30
0.0
 11
0.0
 21
0.0
 31
0.0
  0
LINE
  5
23E
330
23C
100
AcDbEntity
  8
0
  6
BYBLOCK
 62
     0
100
AcDbLine
 10
0.0
 20
0.0
 30
0.0
 11
-1.0
 21
-0.26794919
 31
0.0
  0
LINE
  5
23F
330
23C
100
AcDbEntity
  8
0
  6
BYBLOCK
 62
     0
100
AcDbLine
 10
0.0
 20
0.0
 30
0.0
 11
-1.0
 21
0.0
 31
0.0
  0
ENDBLK
  5
241
330
23C
100
AcDbEntity
  8
0
100
AcDbBlockEnd
  0
BLOCK
  5
742
330
694
100
AcDbEntity
  8
0
100
AcDbBlockBegin
  2
A$C1006746607
 70
     0
 10
0.0
 20
0.0
 30
0.0
  3
A$C1006746607
  1

  0
LINE
  5
6BA
330
694
100
AcDbEntity
  8
0
100
AcDbLine
 10
3.75
 20
75.25
 30
0.0
 11
15.75
 21
75.25
 31
0.0
  0
LINE
  5
6BB
330
694
100
AcDbEntity
  8
0
100
AcDbLine
 10
3.75
 20
61.25000000000001
 30
0.0
 11
15.75
 21
61.25000000000001
 31
0.0
  0
LINE
  5
6BC
330
694
100
AcDbEntity
  8
0
100
AcDbLine
 10
2.75
 20
74.25
 30
0.0
 11
2.75
 21
62.25000000000001
 31
0.0
  0
LINE
  5
6BD
330
694
100
AcDbEntity
  8
0
100
AcDbLine
 10
16.75
 20
74.25
 30
0.0
 11
16.75
 21
62.25000000000001
 31
0.0
  0
ARC
  5
6BE
330
694
100
AcDbEntity
  8
0
100
AcDbCircle
 10
3.75
 20
74.25
 30
0.0
 40
1.0
100
AcDbArc
 50
90.0
 51
180.0
  0
ARC
  5
6BF
330
694
100
AcDbEntity
  8
0
100
AcDbCircle
 10
15.75
 20
74.25
 30
0.0
 40
1.0
100
AcDbArc
 50
0.0
 51
90.0
  0
ARC
  5
6C0
330
694
100
AcDbEntity
  8
0
100
AcDbCircle
 10
3.75
 20
62.25000000000001
 30
0.0
 40
1.0
100
AcDbArc
 50
180.0
 51
270.0
  0
ARC
  5
6C1
330
694
100
AcDbEntity
  8
0
100
AcDbCircle
 10
15.75
 20
62.25000000000001
 30
0.0
 40
1.0
100
AcDbArc
 50
270.0
 51
0.0
  0
LINE
  5
6C2
330
694
100
AcDbEntity
  8
0
100
AcDbLine
 10
23.25
 20
75.25
 30
0.0
 11
35.25000000000001
 21
75.25
 31
0.0
  0
LINE
  5
6C3
330
694
100
AcDbEntity
  8
0
100
AcDbLine
 10
23.25
 20
61.25000000000001
 30
0.0
 11
35.25000000000001
 21
61.25000000000001
 31
0.0
  0
LINE
  5
6C4
330
694
100
AcDbEntity
  8
0
100
AcDbLine
 10
22.25
 20
74.25
 30
0.0
 11
22.25
 21
62.25000000000001
 31
0.0
  0
LINE
  5
6C5
330
694
100
AcDbEntity
  8
0
100
AcDbLine
 10
36.25000000000001
 20
74.25
 30
0.0
 11
36.25000000000001
 21
62.25000000000001
 31
0.0
  0
ARC
  5
6C6
330
694
100
AcDbEntity
  8
0
100
AcDbCircle
 10
23.25
 20
74.25
 30
0.0
 40
1.0
100
AcDbArc
 50
90.0
 51
180.0
  0
ARC
  5
6C7
330
694
100
AcDbEntity
  8
0
100
AcDbCircle
 10
35.25000000000001
 20
74.25
 30
0.0
 40
1.0
100
AcDbArc
 50
0.0
 51
90.0
  0
ARC
  5
6C8
330
694
100
AcDbEntity
  8
0
100
AcDbCircle
 10
23.25
 20
62.25000000000001
 30
0.0
 40
1.0
100
AcDbArc
 50
180.0
 51
270.0
  0
ARC
  5
6C9
330
694
100
AcDbEntity
  8
0
100
AcDbCircle
 10
35.25000000000001
 20
62.25000000000001
 30
0.0
 40
1.0
100
AcDbArc
 50
270.0
 51
0.0
  0
LINE
  5
6CA
330
694
100
AcDbEntity
  8
0
100
AcDbLine
 10
42.75000000000001
 20
75.25
 30
0.0
 11
54.75000000000001
 21
75.25
 31
0.0
  0
LINE
  5
6CB
330
694
100
AcDbEntity
  8
0
100
AcDbLine
 10
42.75000000000001
 20
61.25000000000001
 30
0.0
 11
54.75000000000001
 21
61.25000000000001
 31
0.0
  0
LINE
  5
6CC
330
694
100
AcDbEntity
  8
0
100
AcDbLine
 10
41.75000000000001
 20
74.25
 30
0.0
 11
41.75000000000001
 21
62.25000000000001
 31
0.0
  0
LINE
  5
6CD
330
694
100
AcDbEntity
  8
0
100
AcDbLine
 10
55.75000000000001
 20
74.25
 30
0.0
 11
55.75000000000001
 21
62.25000000000001
 31
0.0
  0
ARC
  5
6CE
330
694
100
AcDbEntity
  8
0
100
AcDbCircle
 10
42.75000000000001
 20
74.25
 30
0.0
 40
1.0
100
AcDbArc
 50
90.0
 51
180.0
  0
ARC
  5
6CF
330
694
100
AcDbEntity
  8
0
100
AcDbCircle
 10
54.75000000000001
 20
74.25
 30
0.0
 40
1.0
100
AcDbArc
 50
0.0
 51
90.0
  0
ARC
  5
6D0
330
694
100
AcDbEntity
  8
0
100
AcDbCircle
 10
42.75000000000001
 20
62.25000000000001
 30
0.0
 40
1.0
100
AcDbArc
 50
180.0
 51
270.0
  0
ARC
  5
6D1
330
694
100
AcDbEntity
  8
0
100
AcDbCircle
 10
54.75000000000001
 20
62.25000000000001
 30
0.0
 40
1.0
100
AcDbArc
 50
270.0
 51
0.0
  0
LINE
  5
6D2
330
694
100
AcDbEntity
  8
0
100
AcDbLine
 10
62.25000000000001
 20
75.25
 30
0.0
 11
74.25
 21
75.25
 31
0.0
  0
LINE
  5
6D3
330
694
100
AcDbEntity
  8
0
100
AcDbLine
 10
62.25000000000001
 20
61.25000000000001
 30
0.0
 11
74.25
 21
61.25000000000001
 31
0.0
  0
LINE
  5
6D4
330
694
100
AcDbEntity
  8
0
100
AcDbLine
 10
61.25000000000001
 20
74.25
 30
0.0
 11
61.25000000000001
 21
62.25000000000001
 31
0.0
  0
LINE
  5
6D5
330
694
100
AcDbEntity
  8
0
100
AcDbLine
 10
75.25
 20
74.25
 30
0.0
 11
75.25
 21
62.25000000000001
 31
0.0
  0
ARC
  5
6D6
330
694
100
AcDbEntity
  8
0
100
AcDbCircle
 10
62.25000000000001
 20
74.25
 30
0.0
 40
1.0
100
AcDbArc
 50
90.0
 51
180.0
  0
ARC
  5
6D7
330
694
100
AcDbEntity
  8
0
100
AcDbCircle
 10
74.25
 20
74.25
 30
0.0
 40
1.0
100
AcDbArc
 50
0.0
 51
90.0
  0
ARC
  5
6D8
330
694
100
AcDbEntity
  8
0
100
AcDbCircle
 10
62.25000000000001
 20
62.25000000000001
 30
0.0
 40
1.0
100
AcDbArc
 50
180.0
 51
270.0
  0
ARC
  5
6D9
330
694
100
AcDbEntity
  8
0
100
AcDbCircle
 10
74.25
 20
62.25000000000001
 30
0.0
 40
1.0
100
AcDbArc
 50
270.0
 51
0.0
  0
LINE
  5
6DA
330
694
100
AcDbEntity
  8
0
100
AcDbLine
 10
3.75
 20
55.75000000000001
 30
0.0
 11
15.75
 21
55.75000000000001
 31
0.0
  0
LINE
  5
6DB
330
694
100
AcDbEntity
  8
0
100
AcDbLine
 10
3.75
 20
41.75000000000001
 30
0.0
 11
15.75
 21
41.75000000000001
 31
0.0
  0
LINE
  5
6DC
330
694
100
AcDbEntity
  8
0
100
AcDbLine
 10
2.75
 20
54.75000000000001
 30
0.0
 11
2.75
 21
42.75000000000001
 31
0.0
  0
LINE
  5
6DD
330
694
100
AcDbEntity
  8
0
100
AcDbLine
 10
16.75
 20
54.75000000000001
 30
0.0
 11
16.75
 21
42.75000000000001
 31
0.0
  0
ARC
  5
6DE
330
694
100
AcDbEntity
  8
0
100
AcDbCircle
 10
3.75
 20
54.75000000000001
 30
0.0
 40
1.0
100
AcDbArc
 50
90.0
 51
180.0
  0
ARC
  5
6DF
330
694
100
AcDbEntity
  8
0
100
AcDbCircle
 10
15.75
 20
54.75000000000001
 30
0.0
 40
1.0
100
AcDbArc
 50
0.0
 51
90.0
  0
ARC
  5
6E0
330
694
100
AcDbEntity
  8
0
100
AcDbCircle
 10
3.75
 20
42.75000000000001
 30
0.0
 40
1.0
100
AcDbArc
 50
180.0
 51
270.0
  0
ARC
  5
6E1
330
694
100
AcDbEntity
  8
0
100
AcDbCircle
 10
15.75
 20
42.75000000000001
 30
0.0
 40
1.0
100
AcDbArc
 50
270.0
 51
0.0
  0
LINE
  5
6E2
330
694
100
AcDbEntity
  8
0
100
AcDbLine
 10
23.25
 20
55.75000000000001
 30
0.0
 11
35.25000000000001
 21
55.75000000000001
 31
0.0
  0
LINE
  5
6E3
330
694
100
AcDbEntity
  8
0
100
AcDbLine
 10
23.25
 20
41.75000000000001
 30
0.0
 11
35.25000000000001
 21
41.75000000000001
 31
0.0
  0
LINE
  5
6E4
330
694
100
AcDbEntity
  8
0
100
AcDbLine
 10
22.25
 20
54.75000000000001
 30
0.0
 11
22.25
 21
42.75000000000001
 31
0.0
  0
LINE
  5
6E5
330
694
100
AcDbEntity
  8
0
100
AcDbLine
 10
36.25000000000001
 20
54.75000000000001
 30
0.0
 11
36.25000000000001
 21
42.75000000000001
 31
0.0
  0
ARC
  5
6E6
330
694
100
AcDbEntity
  8
0
100
AcDbCircle
 10
23.25
 20
54.75000000000001
 30
0.0
 40
1.0
100
AcDbArc
 50
90.0
 51
180.0
  0
ARC
  5
6E7
330
694
100
AcDbEntity
  8
0
100
AcDbCircle
 10
35.25000000000001
 20
54.75000000000001
 30
0.0
 40
1.0
100
AcDbArc
 50
0.0
 51
90.0
  0
ARC
  5
6E8
330
694
100
AcDbEntity
  8
0
100
AcDbCircle
 10
23.25
 20
42.75000000000001
 30
0.0
 40
1.0
100
AcDbArc
 50
180.0
 51
270.0
  0
ARC
  5
6E9
330
694
100
AcDbEntity
  8
0
100
AcDbCircle
 10
35.25000000000001
 20
42.75000000000001
 30
0.0
 40
1.0
100
AcDbArc
 50
270.0
 51
0.0
  0
LINE
  5
6EA
330
694
100
AcDbEntity
  8
0
100
AcDbLine
 10
42.75000000000001
 20
55.75000000000001
 30
0.0
 11
54.75000000000001
 21
55.75000000000001
 31
0.0
  0
LINE
  5
6EB
330
694
100
AcDbEntity
  8
0
100
AcDbLine
 10
42.75000000000001
 20
41.75000000000001
 30
0.0
 11
54.75000000000001
 21
41.75000000000001
 31
0.0
  0
LINE
  5
6EC
330
694
100
AcDbEntity
  8
0
100
AcDbLine
 10
41.75000000000001
 20
54.75000000000001
 30
0.0
 11
41.75000000000001
 21
42.75000000000001
 31
0.0
  0
LINE
  5
6ED
330
694
100
AcDbEntity
  8
0
100
AcDbLine
 10
55.75000000000001
 20
54.75000000000001
 30
0.0
 11
55.75000000000001
 21
42.75000000000001
 31
0.0
  0
ARC
  5
6EE
330
694
100
AcDbEntity
  8
0
100
AcDbCircle
 10
42.75000000000001
 20
54.75000000000001
 30
0.0
 40
1.0
100
AcDbArc
 50
90.0
 51
180.0
  0
ARC
  5
6EF
330
694
100
AcDbEntity
  8
0
100
AcDbCircle
 10
54.75000000000001
 20
54.75000000000001
 30
0.0
 40
1.0
100
AcDbArc
 50
0.0
 51
90.0
  0
ARC
  5
6F0
330
694
100
AcDbEntity
  8
0
100
AcDbCircle
 10
42.75000000000001
 20
42.75000000000001
 30
0.0
 40
1.0
100
AcDbArc
 50
180.0
 51
270.0
  0
ARC
  5
6F1
330
694
100
AcDbEntity
  8
0
100
AcDbCircle
 10
54.75000000000001
 20
42.75000000000001
 30
0.0
 40
1.0
100
AcDbArc
 50
270.0
 51
0.0
  0
LINE
  5
6F2
330
694
100
AcDbEntity
  8
0
100
AcDbLine
 10
62.25000000000001
 20
55.75000000000001
 30
0.0
 11
74.25
 21
55.75000000000001
 31
0.0
  0
LINE
  5
6F3
330
694
100
AcDbEntity
  8
0
100
AcDbLine
 10
62.25000000000001
 20
41.75000000000001
 30
0.0
 11
74.25
 21
41.75000000000001
 31
0.0
  0
LINE
  5
6F4
330
694
100
AcDbEntity
  8
0
100
AcDbLine
 10
61.25000000000001
 20
54.75000000000001
 30
0.0
 11
61.25000000000001
 21
42.75000000000001
 31
0.0
  0
LINE
  5
6F5
330
694
100
AcDbEntity
  8
0
100
AcDbLine
 10
75.25
 20
54.75000000000001
 30
0.0
 11
75.25
 21
42.75000000000001
 31
0.0
  0
ARC
  5
6F6
330
694
100
AcDbEntity
  8
0
100
AcDbCircle
 10
62.25000000000001
 20
54.75000000000001
 30
0.0
 40
1.0
100
AcDbArc
 50
90.0
 51
180.0
  0
ARC
  5
6F7
330
694
100
AcDbEntity
  8
0
100
AcDbCircle
 10
74.25
 20
54.75000000000001
 30
0.0
 40
1.0
100
AcDbArc
 50
0.0
 51
90.0
  0
ARC
  5
6F8
330
694
100
AcDbEntity
  8
0
100
AcDbCircle
 10
62.25000000000001
 20
42.75000000000001
 30
0.0
 40
1.0
100
AcDbArc
 50
180.0
 51
270.0
  0
ARC
  5
6F9
330
694
100
AcDbEntity
  8
0
100
AcDbCircle
 10
74.25
 20
42.75000000000001
 30
0.0
 40
1.0
100
AcDbArc
 50
270.0
 51
0.0
  0
LINE
  5
6FA
330
694
100
AcDbEntity
  8
0
100
AcDbLine
 10
3.75
 20
36.25000000000001
 30
0.0
 11
15.75
 21
36.25000000000001
 31
0.0
  0
LINE
  5
6FB
330
694
100
AcDbEntity
  8
0
100
AcDbLine
 10
3.75
 20
22.25
 30
0.0
 11
15.75
 21
22.25
 31
0.0
  0
LINE
  5
6FC
330
694
100
AcDbEntity
  8
0
100
AcDbLine
 10
2.75
 20
35.25000000000001
 30
0.0
 11
2.75
 21
23.25
 31
0.0
  0
LINE
  5
6FD
330
694
100
AcDbEntity
  8
0
100
AcDbLine
 10
16.75
 20
35.25000000000001
 30
0.0
 11
16.75
 21
23.25
 31
0.0
  0
ARC
  5
6FE
330
694
100
AcDbEntity
  8
0
100
AcDbCircle
 10
3.75
 20
35.25000000000001
 30
0.0
 40
1.0
100
AcDbArc
 50
90.0
 51
180.0
  0
ARC
  5
6FF
330
694
100
AcDbEntity
  8
0
100
AcDbCircle
 10
15.75
 20
35.25000000000001
 30
0.0
 40
1.0
100
AcDbArc
 50
0.0
 51
90.0
  0
ARC
  5
700
330
694
100
AcDbEntity
  8
0
100
AcDbCircle
 10
3.75
 20
23.25
 30
0.0
 40
1.0
100
AcDbArc
 50
180.0
 51
270.0
  0
ARC
  5
701
330
694
100
AcDbEntity
  8
0
100
AcDbCircle
 10
15.75
 20
23.25
 30
0.0
 40
1.0
100
AcDbArc
 50
270.0
 51
0.0
  0
LINE
  5
702
330
694
100
AcDbEntity
  8
0
100
AcDbLine
 10
23.25
 20
36.25000000000001
 30
0.0
 11
35.25000000000001
 21
36.25000000000001
 31
0.0
  0
LINE
  5
703
330
694
100
AcDbEntity
  8
0
100
AcDbLine
 10
23.25
 20
22.25
 30
0.0
 11
35.25000000000001
 21
22.25
 31
0.0
  0
LINE
  5
704
330
694
100
AcDbEntity
  8
0
100
AcDbLine
 10
22.25
 20
35.25000000000001
 30
0.0
 11
22.25
 21
23.25
 31
0.0
  0
LINE
  5
705
330
694
100
AcDbEntity
  8
0
100
AcDbLine
 10
36.25000000000001
 20
35.25000000000001
 30
0.0
 11
36.25000000000001
 21
23.25
 31
0.0
  0
ARC
  5
706
330
694
100
AcDbEntity
  8
0
100
AcDbCircle
 10
23.25
 20
35.25000000000001
 30
0.0
 40
1.0
100
AcDbArc
 50
90.0
 51
180.0
  0
ARC
  5
707
330
694
100
AcDbEntity
  8
0
100
AcDbCircle
 10
35.25000000000001
 20
35.25000000000001
 30
0.0
 40
1.0
100
AcDbArc
 50
0.0
 51
90.0
  0
ARC
  5
708
330
694
100
AcDbEntity
  8
0
100
AcDbCircle
 10
23.25
 20
23.25
 30
0.0
 40
1.0
100
AcDbArc
 50
180.0
 51
270.0
  0
ARC
  5
709
330
694
100
AcDbEntity
  8
0
100
AcDbCircle
 10
35.25000000000001
 20
23.25
 30
0.0
 40
1.0
100
AcDbArc
 50
270.0
 51
0.0
  0
LINE
  5
70A
330
694
100
AcDbEntity
  8
0
100
AcDbLine
 10
42.75000000000001
 20
36.25000000000001
 30
0.0
 11
54.75000000000001
 21
36.25000000000001
 31
0.0
  0
LINE
  5
70B
330
694
100
AcDbEntity
  8
0
100
AcDbLine
 10
42.75000000000001
 20
22.25
 30
0.0
 11
54.75000000000001
 21
22.25
 31
0.0
  0
LINE
  5
70C
330
694
100
AcDbEntity
  8
0
100
AcDbLine
 10
41.75000000000001
 20
35.25000000000001
 30
0.0
 11
41.75000000000001
 21
23.25
 31
0.0
  0
LINE
  5
70D
330
694
100
AcDbEntity
  8
0
100
AcDbLine
 10
55.75000000000001
 20
35.25000000000001
 30
0.0
 11
55.75000000000001
 21
23.25
 31
0.0
  0
ARC
  5
70E
330
694
100
AcDbEntity
  8
0
100
AcDbCircle
 10
42.75000000000001
 20
35.25000000000001
 30
0.0
 40
1.0
100
AcDbArc
 50
90.0
 51
180.0
  0
ARC
  5
70F
330
694
100
AcDbEntity
  8
0
100
AcDbCircle
 10
54.75000000000001
 20
35.25000000000001
 30
0.0
 40
1.0
100
AcDbArc
 50
0.0
 51
90.0
  0
ARC
  5
710
330
694
100
AcDbEntity
  8
0
100
AcDbCircle
 10
42.75000000000001
 20
23.25
 30
0.0
 40
1.0
100
AcDbArc
 50
180.0
 51
270.0
  0
ARC
  5
711
330
694
100
AcDbEntity
  8
0
100
AcDbCircle
 10
54.75000000000001
 20
23.25
 30
0.0
 40
1.0
100
AcDbArc
 50
270.0
 51
0.0
  0
LINE
  5
712
330
694
100
AcDbEntity
  8
0
100
AcDbLine
 10
62.25000000000001
 20
36.25000000000001
 30
0.0
 11
74.25
 21
36.25000000000001
 31
0.0
  0
LINE
  5
713
330
694
100
AcDbEntity
  8
0
100
AcDbLine
 10
62.25000000000001
 20
22.25
 30
0.0
 11
74.25
 21
22.25
 31
0.0
  0
LINE
  5
714
330
694
100
AcDbEntity
  8
0
100
AcDbLine
 10
61.25000000000001
 20
35.25000000000001
 30
0.0
 11
61.25000000000001
 21
23.25
 31
0.0
  0
LINE
  5
715
330
694
100
AcDbEntity
  8
0
100
AcDbLine
 10
75.25
 20
35.25000000000001
 30
0.0
 11
75.25
 21
23.25
 31
0.0
  0
ARC
  5
716
330
694
100
AcDbEntity
  8
0
100
AcDbCircle
 10
62.25000000000001
 20
35.25000000000001
 30
0.0
 40
1.0
100
AcDbArc
 50
90.0
 51
180.0
  0
ARC
  5
717
330
694
100
AcDbEntity
  8
0
100
AcDbCircle
 10
74.25
 20
35.25000000000001
 30
0.0
 40
1.0
100
AcDbArc
 50
0.0
 51
90.0
  0
ARC
  5
718
330
694
100
AcDbEntity
  8
0
100
AcDbCircle
 10
62.25000000000001
 20
23.25
 30
0.0
 40
1.0
100
AcDbArc
 50
180.0
 51
270.0
  0
ARC
  5
719
330
694
100
AcDbEntity
  8
0
100
AcDbCircle
 10
74.25
 20
23.25
 30
0.0
 40
1.0
100
AcDbArc
 50
270.0
 51
0.0
  0
LINE
  5
71A
330
694
100
AcDbEntity
  8
0
100
AcDbLine
 10
3.75
 20
16.75
 30
0.0
 11
15.75
 21
16.75
 31
0.0
  0
LINE
  5
71B
330
694
100
AcDbEntity
  8
0
100
AcDbLine
 10
3.75
 20
2.750000000000001
 30
0.0
 11
15.75
 21
2.750000000000001
 31
0.0
  0
LINE
  5
71C
330
694
100
AcDbEntity
  8
0
100
AcDbLine
 10
2.75
 20
15.75
 30
0.0
 11
2.75
 21
3.750000000000001
 31
0.0
  0
LINE
  5
71D
330
694
100
AcDbEntity
  8
0
100
AcDbLine
 10
16.75
 20
15.75
 30
0.0
 11
16.75
 21
3.750000000000001
 31
0.0
  0
ARC
  5
71E
330
694
100
AcDbEntity
  8
0
100
AcDbCircle
 10
3.75
 20
15.75
 30
0.0
 40
1.0
100
AcDbArc
 50
90.0
 51
180.0
  0
ARC
  5
71F
330
694
100
AcDbEntity
  8
0
100
AcDbCircle
 10
15.75
 20
15.75
 30
0.0
 40
1.0
100
AcDbArc
 50
0.0
 51
90.0
  0
ARC
  5
720
330
694
100
AcDbEntity
  8
0
100
AcDbCircle
 10
3.75
 20
3.750000000000001
 30
0.0
 40
1.0
100
AcDbArc
 50
180.0
 51
270.0
  0
ARC
  5
721
330
694
100
AcDbEntity
  8
0
100
AcDbCircle
 10
15.75
 20
3.750000000000001
 30
0.0
 40
1.0
100
AcDbArc
 50
270.0
 51
0.0
  0
LINE
  5
722
330
694
100
AcDbEntity
  8
0
100
AcDbLine
 10
23.25
 20
16.75
 30
0.0
 11
35.25000000000001
 21
16.75
 31
0.0
  0
LINE
  5
723
330
694
100
AcDbEntity
  8
0
100
AcDbLine
 10
23.25
 20
2.750000000000001
 30
0.0
 11
35.25000000000001
 21
2.750000000000001
 31
0.0
  0
LINE
  5
724
330
694
100
AcDbEntity
  8
0
100
AcDbLine
 10
22.25
 20
15.75
 30
0.0
 11
22.25
 21
3.750000000000001
 31
0.0
  0
LINE
  5
725
330
694
100
AcDbEntity
  8
0
100
AcDbLine
 10
36.25000000000001
 20
15.75
 30
0.0
 11
36.25000000000001
 21
3.750000000000001
 31
0.0
  0
ARC
  5
726
330
694
100
AcDbEntity
  8
0
100
AcDbCircle
 10
23.25
 20
15.75
 30
0.0
 40
1.0
100
AcDbArc
 50
90.0
 51
180.0
  0
ARC
  5
727
330
694
100
AcDbEntity
  8
0
100
AcDbCircle
 10
35.25000000000001
 20
15.75
 30
0.0
 40
1.0
100
AcDbArc
 50
0.0
 51
90.0
  0
ARC
  5
728
330
694
100
AcDbEntity
  8
0
100
AcDbCircle
 10
23.25
 20
3.750000000000001
 30
0.0
 40
1.0
100
AcDbArc
 50
180.0
 51
270.0
  0
ARC
  5
729
330
694
100
AcDbEntity
  8
0
100
AcDbCircle
 10
35.25000000000001
 20
3.750000000000001
 30
0.0
 40
1.0
100
AcDbArc
 50
270.0
 51
0.0
  0
LINE
  5
72A
330
694
100
AcDbEntity
  8
0
100
AcDbLine
 10
42.75000000000001
 20
16.75
 30
0.0
 11
54.75000000000001
 21
16.75
 31
0.0
  0
LINE
  5
72B
330
694
100
AcDbEntity
  8
0
100
AcDbLine
 10
42.75000000000001
 20
2.750000000000001
 30
0.0
 11
54.75000000000001
 21
2.750000000000001
 31
0.0
  0
LINE
  5
72C
330
694
100
AcDbEntity
  8
0
100
AcDbLine
 10
41.75000000000001
 20
15.75
 30
0.0
 11
41.75000000000001
 21
3.750000000000001
 31
0.0
  0
LINE
  5
72D
330
694
100
AcDbEntity
  8
0
100
AcDbLine
 10
55.75000000000001
 20
15.75
 30
0.0
 11
55.75000000000001
 21
3.750000000000001
 31
0.0
  0
ARC
  5
72E
330
694
100
AcDbEntity
  8
0
100
AcDbCircle
 10
42.75000000000001
 20
15.75
 30
0.0
 40
1.0
100
AcDbArc
 50
90.0
 51
180.0
  0
ARC
  5
72F
330
694
100
AcDbEntity
  8
0
100
AcDbCircle
 10
54.75000000000001
 20
15.75
 30
0.0
 40
1.0
100
AcDbArc
 50
0.0
 51
90.0
  0
ARC
  5
730
330
694
100
AcDbEntity
  8
0
100
AcDbCircle
 10
42.75000000000001
 20
3.750000000000001
 30
0.0
 40
1.0
100
AcDbArc
 50
180.0
 51
270.0
  0
ARC
  5
731
330
694
100
AcDbEntity
  8
0
100
AcDbCircle
 10
54.75000000000001
 20
3.750000000000001
 30
0.0
 40
1.0
100
AcDbArc
 50
270.0
 51
0.0
  0
LINE
  5
732
330
694
100
AcDbEntity
  8
0
100
AcDbLine
 10
62.25000000000001
 20
16.75
 30
0.0
 11
74.25
 21
16.75
 31
0.0
  0
LINE
  5
733
330
694
100
AcDbEntity
  8
0
100
AcDbLine
 10
62.25000000000001
 20
2.750000000000001
 30
0.0
 11
74.25
 21
2.750000000000001
 31
0.0
  0
LINE
  5
734
330
694
100
AcDbEntity
  8
0
100
AcDbLine
 10
61.25000000000001
 20
15.75
 30
0.0
 11
61.25000000000001
 21
3.750000000000001
 31
0.0
  0
LINE
  5
735
330
694
100
AcDbEntity
  8
0
100
AcDbLine
 10
75.25
 20
15.75
 30
0.0
 11
75.25
 21
3.750000000000001
 31
0.0
  0
ARC
  5
736
330
694
100
AcDbEntity
  8
0
100
AcDbCircle
 10
62.25000000000001
 20
15.75
 30
0.0
 40
1.0
100
AcDbArc
 50
90.0
 51
180.0
  0
ARC
  5
737
330
694
100
AcDbEntity
  8
0
100
AcDbCircle
 10
74.25
 20
15.75
 30
0.0
 40
1.0
100
AcDbArc
 50
0.0
 51
90.0
  0
ARC
  5
738
330
694
100
AcDbEntity
  8
0
100
AcDbCircle
 10
62.25000000000001
 20
3.750000000000001
 30
0.0
 40
1.0
100
AcDbArc
 50
180.0
 51
270.0
  0
ARC
  5
739
330
694
100
AcDbEntity
  8
0
100
AcDbCircle
 10
74.25
 20
3.750000000000001
 30
0.0
 40
1.0
100
AcDbArc
 50
270.0
 51
0.0
  0
LINE
  5
73A
330
694
100
AcDbEntity
  8
0
100
AcDbLine
 10
0.0000000000000003
 20
78.0
 30
0.0
 11
78.0
 21
78.0
 31
0.0
  0
LINE
  5
73B
330
694
100
AcDbEntity
  8
0
100
AcDbLine
 10
0.0000000000000003
 20
0.0000000000000008
 30
0.0
 11
78.0
 21
0.0000000000000008
 31
0.0
  0
LINE
  5
73C
330
694
100
AcDbEntity
  8
0
100
AcDbLine
 10
0.0000000000000003
 20
78.0
 30
0.0
 11
0.0000000000000003
 21
0.0000000000000008
 31
0.0
  0
LINE
  5
73D
330
694
100
AcDbEntity
  8
0
100
AcDbLine
 10
78.0
 20
78.0
 30
0.0
 11
78.0
 21
0.0000000000000008
 31
0.0
  0
CIRCLE
  5
73E
330
694
100
AcDbEntity
  8
0
100
AcDbCircle
 10
58.50000000000001
 20
58.50000000000001
 30
0.0
 40
1.0
  0
CIRCLE
  5
73F
330
694
100
AcDbEntity
  8
0
100
AcDbCircle
 10
19.5
 20
19.5
 30
0.0
 40
1.0
  0
CIRCLE
  5
740
330
694
100
AcDbEntity
  8
0
100
AcDbCircle
 10
58.50000000000001
 20
19.5
 30
0.0
 40
1.0
  0
CIRCLE
  5
741
330
694
100
AcDbEntity
  8
0
100
AcDbCircle
 10
19.5
 20
58.50000000000001
 30
0.0
 40
1.0
  0
ENDBLK
  5
743
330
694
100
AcDbEntity
  8
0
100
AcDbBlockEnd
  0
ENDSEC
  0
SECTION
  2
ENTITIES
  0
LINE
  5
8AD
330
1F
100
AcDbEntity
  8
0
 62
     1
100
AcDbLine
 10
3.749993662494556
 20
75.25001122674085
 30
0.0
 11
15.74999366249456
 21
75.25001122674085
 31
0.0
  0
LINE
  5
8AE
330
1F
100
AcDbEntity
  8
0
 62
     1
100
AcDbLine
 10
3.749993662494556
 20
61.25001122674086
 30
0.0
 11
15.74999366249456
 21
61.25001122674086
 31
0.0
  0
LINE
  5
8AF
330
1F
100
AcDbEntity
  8
0
 62
     1
100
AcDbLine
 10
2.749993662494556
 20
74.25001122674085
 30
0.0
 11
2.749993662494556
 21
62.25001122674086
 31
0.0
  0
LINE
  5
8B0
330
1F
100
AcDbEntity
  8
0
 62
     1
100
AcDbLine
 10
16.74999366249456
 20
74.25001122674085
 30
0.0
 11
16.74999366249456
 21
62.25001122674086
 31
0.0
  0
ARC
  5
8B1
330
1F
100
AcDbEntity
  8
0
 62
     1
100
AcDbCircle
 10
3.749993662494556
 20
74.25001122674085
 30
0.0
 40
1.0
100
AcDbArc
 50
90.0
 51
180.0
  0
ARC
  5
8B2
330
1F
100
AcDbEntity
  8
0
 62
     1
100
AcDbCircle
 10
15.74999366249456
 20
74.25001122674085
 30
0.0
 40
1.0
100
AcDbArc
 50
0.0
 51
90.0
  0
ARC
  5
8B3
330
1F
100
AcDbEntity
  8
0
 62
     1
100
AcDbCircle
 10
3.749993662494556
 20
62.25001122674086
 30
0.0
 40
1.0
100
AcDbArc
 50
180.0
 51
270.0
  0
ARC
  5
8B4
330
1F
100
AcDbEntity
  8
0
 62
     1
100
AcDbCircle
 10
15.74999366249456
 20
62.25001122674086
 30
0.0
 40
1.0
100
AcDbArc
 50
270.0
 51
0.0
  0
LINE
  5
8B5
330
1F
100
AcDbEntity
  8
0
 62
     1
100
AcDbLine
 10
23.24999366249456
 20
75.25001122674085
 30
0.0
 11
35.24999366249455
 21
75.25001122674085
 31
0.0
  0
LINE
  5
8B6
330
1F
100
AcDbEntity
  8
0
 62
     1
100
AcDbLine
 10
23.24999366249456
 20
61.25001122674086
 30
0.0
 11
35.24999366249455
 21
61.25001122674086
 31
0.0
  0
LINE
  5
8B7
330
1F
100
AcDbEntity
  8
0
 62
     1
100
AcDbLine
 10
22.24999366249456
 20
74.25001122674085
 30
0.0
 11
22.24999366249456
 21
62.25001122674086
 31
0.0
  0
LINE
  5
8B8
330
1F
100
AcDbEntity
  8
0
 62
     1
100
AcDbLine
 10
36.24999366249455
 20
74.25001122674085
 30
0.0
 11
36.24999366249455
 21
62.25001122674086
 31
0.0
  0
ARC
  5
8B9
330
1F
100
AcDbEntity
  8
0
 62
     1
100
AcDbCircle
 10
23.24999366249456
 20
74.25001122674085
 30
0.0
 40
1.0
100
AcDbArc
 50
90.0
 51
180.0
  0
ARC
  5
8BA
330
1F
100
AcDbEntity
  8
0
 62
     1
100
AcDbCircle
 10
35.24999366249455
 20
74.25001122674085
 30
0.0
 40
1.0
100
AcDbArc
 50
0.0
 51
90.0
  0
ARC
  5
8BB
330
1F
100
AcDbEntity
  8
0
 62
     1
100
AcDbCircle
 10
23.24999366249456
 20
62.25001122674086
 30
0.0
 40
1.0
100
AcDbArc
 50
180.0
 51
270.0
  0
ARC
  5
8BC
330
1F
100
AcDbEntity
  8
0
 62
     1
100
AcDbCircle
 10
35.24999366249455
 20
62.25001122674086
 30
0.0
 40
1.0
100
AcDbArc
 50
270.0
 51
0.0
  0
LINE
  5
8BD
330
1F
100
AcDbEntity
  8
0
 62
     1
100
AcDbLine
 10
42.74999366249455
 20
75.25001122674085
 30
0.0
 11
54.74999366249455
 21
75.25001122674085
 31
0.0
  0
LINE
  5
8BE
330
1F
100
AcDbEntity
  8
0
 62
     1
100
AcDbLine
 10
42.74999366249455
 20
61.25001122674086
 30
0.0
 11
54.74999366249455
 21
61.25001122674086
 31
0.0
  0
LINE
  5
8BF
330
1F
100
AcDbEntity
  8
0
 62
     1
100
AcDbLine
 10
41.74999366249455
 20
74.25001122674085
 30
0.0
 11
41.74999366249455
 21
62.25001122674086
 31
0.0
  0
LINE
  5
8C0
330
1F
100
AcDbEntity
  8
0
 62
     1
100
AcDbLine
 10
55.74999366249455
 20
74.25001122674085
 30
0.0
 11
55.74999366249455
 21
62.25001122674086
 31
0.0
  0
ARC
  5
8C1
330
1F
100
AcDbEntity
  8
0
 62
     1
100
AcDbCircle
 10
42.74999366249455
 20
74.25001122674085
 30
0.0
 40
1.0
100
AcDbArc
 50
90.0
 51
180.0
  0
ARC
  5
8C2
330
1F
100
AcDbEntity
  8
0
 62
     1
100
AcDbCircle
 10
54.74999366249455
 20
74.25001122674085
 30
0.0
 40
1.0
100
AcDbArc
 50
0.0
 51
90.0
  0
ARC
  5
8C3
330
1F
100
AcDbEntity
  8
0
 62
     1
100
AcDbCircle
 10
42.74999366249455
 20
62.25001122674086
 30
0.0
 40
1.0
100
AcDbArc
 50
180.0
 51
270.0
  0
ARC
  5
8C4
330
1F
100
AcDbEntity
  8
0
 62
     1
100
AcDbCircle
 10
54.74999366249455
 20
62.25001122674086
 30
0.0
 40
1.0
100
AcDbArc
 50
270.0
 51
0.0
  0
LINE
  5
8C5
330
1F
100
AcDbEntity
  8
0
 62
     1
100
AcDbLine
 10
62.24999366249455
 20
75.25001122674085
 30
0.0
 11
74.24999366249456
 21
75.25001122674085
 31
0.0
  0
LINE
  5
8C6
330
1F
100
AcDbEntity
  8
0
 62
     1
100
AcDbLine
 10
62.24999366249455
 20
61.25001122674086
 30
0.0
 11
74.24999366249456
 21
61.25001122674086
 31
0.0
  0
LINE
  5
8C7
330
1F
100
AcDbEntity
  8
0
 62
     1
100
AcDbLine
 10
61.24999366249455
 20
74.25001122674085
 30
0.0
 11
61.24999366249455
 21
62.25001122674086
 31
0.0
  0
LINE
  5
8C8
330
1F
100
AcDbEntity
  8
0
 62
     1
100
AcDbLine
 10
75.24999366249456
 20
74.25001122674085
 30
0.0
 11
75.24999366249456
 21
62.25001122674086
 31
0.0
  0
ARC
  5
8C9
330
1F
100
AcDbEntity
  8
0
 62
     1
100
AcDbCircle
 10
62.24999366249455
 20
74.25001122674085
 30
0.0
 40
1.0
100
AcDbArc
 50
90.0
 51
180.0
  0
ARC
  5
8CA
330
1F
100
AcDbEntity
  8
0
 62
     1
100
AcDbCircle
 10
74.24999366249456
 20
74.25001122674085
 30
0.0
 40
1.0
100
AcDbArc
 50
0.0
 51
90.0
  0
ARC
  5
8CB
330
1F
100
AcDbEntity
  8
0
 62
     1
100
AcDbCircle
 10
62.24999366249455
 20
62.25001122674086
 30
0.0
 40
1.0
100
AcDbArc
 50
180.0
 51
270.0
  0
ARC
  5
8CC
330
1F
100
AcDbEntity
  8
0
 62
     1
100
AcDbCircle
 10
74.24999366249456
 20
62.25001122674086
 30
0.0
 40
1.0
100
AcDbArc
 50
270.0
 51
0.0
  0
LINE
  5
8CD
330
1F
100
AcDbEntity
  8
0
 62
     1
100
AcDbLine
 10
3.749993662494556
 20
55.75001122674086
 30
0.0
 11
15.74999366249456
 21
55.75001122674086
 31
0.0
  0
LINE
  5
8CE
330
1F
100
AcDbEntity
  8
0
 62
     1
100
AcDbLine
 10
3.749993662494556
 20
41.75001122674086
 30
0.0
 11
15.74999366249456
 21
41.75001122674086
 31
0.0
  0
LINE
  5
8CF
330
1F
100
AcDbEntity
  8
0
 62
     1
100
AcDbLine
 10
2.749993662494556
 20
54.75001122674086
 30
0.0
 11
2.749993662494556
 21
42.75001122674086
 31
0.0
  0
LINE
  5
8D0
330
1F
100
AcDbEntity
  8
0
 62
     1
100
AcDbLine
 10
16.74999366249456
 20
54.75001122674086
 30
0.0
 11
16.74999366249456
 21
42.75001122674086
 31
0.0
  0
ARC
  5
8D1
330
1F
100
AcDbEntity
  8
0
 62
     1
100
AcDbCircle
 10
3.749993662494556
 20
54.75001122674086
 30
0.0
 40
1.0
100
AcDbArc
 50
90.0
 51
180.0
  0
ARC
  5
8D2
330
1F
100
AcDbEntity
  8
0
 62
     1
100
AcDbCircle
 10
15.74999366249456
 20
54.75001122674086
 30
0.0
 40
1.0
100
AcDbArc
 50
0.0
 51
90.0
  0
ARC
  5
8D3
330
1F
100
AcDbEntity
  8
0
 62
     1
100
AcDbCircle
 10
3.749993662494556
 20
42.75001122674086
 30
0.0
 40
1.0
100
AcDbArc
 50
180.0
 51
270.0
  0
ARC
  5
8D4
330
1F
100
AcDbEntity
  8
0
 62
     1
100
AcDbCircle
 10
15.74999366249456
 20
42.75001122674086
 30
0.0
 40
1.0
100
AcDbArc
 50
270.0
 51
0.0
  0
LINE
  5
8D5
330
1F
100
AcDbEntity
  8
0
 62
     1
100
AcDbLine
 10
23.24999366249456
 20
55.75001122674086
 30
0.0
 11
35.24999366249455
 21
55.75001122674086
 31
0.0
  0
LINE
  5
8D6
330
1F
100
AcDbEntity
  8
0
 62
     1
100
AcDbLine
 10
23.24999366249456
 20
41.75001122674086
 30
0.0
 11
35.24999366249455
 21
41.75001122674086
 31
0.0
  0
LINE
  5
8D7
330
1F
100
AcDbEntity
  8
0
 62
     1
100
AcDbLine
 10
22.24999366249456
 20
54.75001122674086
 30
0.0
 11
22.24999366249456
 21
42.75001122674086
 31
0.0
  0
LINE
  5
8D8
330
1F
100
AcDbEntity
  8
0
 62
     1
100
AcDbLine
 10
36.24999366249455
 20
54.75001122674086
 30
0.0
 11
36.24999366249455
 21
42.75001122674086
 31
0.0
  0
ARC
  5
8D9
330
1F
100
AcDbEntity
  8
0
 62
     1
100
AcDbCircle
 10
23.24999366249456
 20
54.75001122674086
 30
0.0
 40
1.0
100
AcDbArc
 50
90.0
 51
180.0
  0
ARC
  5
8DA
330
1F
100
AcDbEntity
  8
0
 62
     1
100
AcDbCircle
 10
35.24999366249455
 20
54.75001122674086
 30
0.0
 40
1.0
100
AcDbArc
 50
0.0
 51
90.0
  0
ARC
  5
8DB
330
1F
100
AcDbEntity
  8
0
 62
     1
100
AcDbCircle
 10
23.24999366249456
 20
42.75001122674086
 30
0.0
 40
1.0
100
AcDbArc
 50
180.0
 51
270.0
  0
ARC
  5
8DC
330
1F
100
AcDbEntity
  8
0
 62
     1
100
AcDbCircle
 10
35.24999366249455
 20
42.75001122674086
 30
0.0
 40
1.0
100
AcDbArc
 50
270.0
 51
0.0
  0
LINE
  5
8DD
330
1F
100
AcDbEntity
  8
0
 62
     1
100
AcDbLine
 10
42.74999366249455
 20
55.75001122674086
 30
0.0
 11
54.74999366249455
 21
55.75001122674086
 31
0.0
  0
LINE
  5
8DE
330
1F
100
AcDbEntity
  8
0
 62
     1
100
AcDbLine
 10
42.74999366249455
 20
41.75001122674086
 30
0.0
 11
54.74999366249455
 21
41.75001122674086
 31
0.0
  0
LINE
  5
8DF
330
1F
100
AcDbEntity
  8
0
 62
     1
100
AcDbLine
 10
41.74999366249455
 20
54.75001122674086
 30
0.0
 11
41.74999366249455
 21
42.75001122674086
 31
0.0
  0
LINE
  5
8E0
330
1F
100
AcDbEntity
  8
0
 62
     1
100
AcDbLine
 10
55.74999366249455
 20
54.75001122674086
 30
0.0
 11
55.74999366249455
 21
42.75001122674086
 31
0.0
  0
ARC
  5
8E1
330
1F
100
AcDbEntity
  8
0
 62
     1
100
AcDbCircle
 10
42.74999366249455
 20
54.75001122674086
 30
0.0
 40
1.0
100
AcDbArc
 50
90.0
 51
180.0
  0
ARC
  5
8E2
330
1F
100
AcDbEntity
  8
0
 62
     1
100
AcDbCircle
 10
54.74999366249455
 20
54.75001122674086
 30
0.0
 40
1.0
100
AcDbArc
 50
0.0
 51
90.0
  0
ARC
  5
8E3
330
1F
100
AcDbEntity
  8
0
 62
     1
100
AcDbCircle
 10
42.74999366249455
 20
42.75001122674086
 30
0.0
 40
1.0
100
AcDbArc
 50
180.0
 51
270.0
  0
ARC
  5
8E4
330
1F
100
AcDbEntity
  8
0
 62
     1
100
AcDbCircle
 10
54.74999366249455
 20
42.75001122674086
 30
0.0
 40
1.0
100
AcDbArc
 50
270.0
 51
0.0
  0
LINE
  5
8E5
330
1F
100
AcDbEntity
  8
0
 62
     1
100
AcDbLine
 10
62.24999366249455
 20
55.75001122674086
 30
0.0
 11
74.24999366249456
 21
55.75001122674086
 31
0.0
  0
LINE
  5
8E6
330
1F
100
AcDbEntity
  8
0
 62
     1
100
AcDbLine
 10
62.24999366249455
 20
41.75001122674086
 30
0.0
 11
74.24999366249456
 21
41.75001122674086
 31
0.0
  0
LINE
  5
8E7
330
1F
100
AcDbEntity
  8
0
 62
     1
100
AcDbLine
 10
61.24999366249455
 20
54.75001122674086
 30
0.0
 11
61.24999366249455
 21
42.75001122674086
 31
0.0
  0
LINE
  5
8E8
330
1F
100
AcDbEntity
  8
0
 62
     1
100
AcDbLine
 10
75.24999366249456
 20
54.75001122674086
 30
0.0
 11
75.24999366249456
 21
42.75001122674086
 31
0.0
  0
ARC
  5
8E9
330
1F
100
AcDbEntity
  8
0
 62
     1
100
AcDbCircle
 10
62.24999366249455
 20
54.75001122674086
 30
0.0
 40
1.0
100
AcDbArc
 50
90.0
 51
180.0
  0
ARC
  5
8EA
330
1F
100
AcDbEntity
  8
0
 62
     1
100
AcDbCircle
 10
74.24999366249456
 20
54.75001122674086
 30
0.0
 40
1.0
100
AcDbArc
 50
0.0
 51
90.0
  0
ARC
  5
8EB
330
1F
100
AcDbEntity
  8
0
 62
     1
100
AcDbCircle
 10
62.24999366249455
 20
42.75001122674086
 30
0.0
 40
1.0
100
AcDbArc
 50
180.0
 51
270.0
  0
ARC
  5
8EC
330
1F
100
AcDbEntity
  8
0
 62
     1
100
AcDbCircle
 10
74.24999366249456
 20
42.75001122674086
 30
0.0
 40
1.0
100
AcDbArc
 50
270.0
 51
0.0
  0
LINE
  5
8ED
330
1F
100
AcDbEntity
  8
0
 62
     1
100
AcDbLine
 10
3.749993662494556
 20
36.25001122674086
 30
0.0
 11
15.74999366249456
 21
36.25001122674086
 31
0.0
  0
LINE
  5
8EE
330
1F
100
AcDbEntity
  8
0
 62
     1
100
AcDbLine
 10
3.749993662494556
 20
22.25001122674086
 30
0.0
 11
15.74999366249456
 21
22.25001122674086
 31
0.0
  0
LINE
  5
8EF
330
1F
100
AcDbEntity
  8
0
 62
     1
100
AcDbLine
 10
2.749993662494556
 20
35.25001122674086
 30
0.0
 11
2.749993662494556
 21
23.25001122674086
 31
0.0
  0
LINE
  5
8F0
330
1F
100
AcDbEntity
  8
0
 62
     1
100
AcDbLine
 10
16.74999366249456
 20
35.25001122674086
 30
0.0
 11
16.74999366249456
 21
23.25001122674086
 31
0.0
  0
ARC
  5
8F1
330
1F
100
AcDbEntity
  8
0
 62
     1
100
AcDbCircle
 10
3.749993662494556
 20
35.25001122674086
 30
0.0
 40
1.0
100
AcDbArc
 50
90.0
 51
180.0
  0
ARC
  5
8F2
330
1F
100
AcDbEntity
  8
0
 62
     1
100
AcDbCircle
 10
15.74999366249456
 20
35.25001122674086
 30
0.0
 40
1.0
100
AcDbArc
 50
0.0
 51
90.0
  0
ARC
  5
8F3
330
1F
100
AcDbEntity
  8
0
 62
     1
100
AcDbCircle
 10
3.749993662494556
 20
23.25001122674086
 30
0.0
 40
1.0
100
AcDbArc
 50
180.0
 51
270.0
  0
ARC
  5
8F4
330
1F
100
AcDbEntity
  8
0
 62
     1
100
AcDbCircle
 10
15.74999366249456
 20
23.25001122674086
 30
0.0
 40
1.0
100
AcDbArc
 50
270.0
 51
0.0
  0
LINE
  5
8F5
330
1F
100
AcDbEntity
  8
0
 62
     1
100
AcDbLine
 10
23.24999366249456
 20
36.25001122674086
 30
0.0
 11
35.24999366249455
 21
36.25001122674086
 31
0.0
  0
LINE
  5
8F6
330
1F
100
AcDbEntity
  8
0
 62
     1
100
AcDbLine
 10
23.24999366249456
 20
22.25001122674086
 30
0.0
 11
35.24999366249455
 21
22.25001122674086
 31
0.0
  0
LINE
  5
8F7
330
1F
100
AcDbEntity
  8
0
 62
     1
100
AcDbLine
 10
22.24999366249456
 20
35.25001122674086
 30
0.0
 11
22.24999366249456
 21
23.25001122674086
 31
0.0
  0
LINE
  5
8F8
330
1F
100
AcDbEntity
  8
0
 62
     1
100
AcDbLine
 10
36.24999366249455
 20
35.25001122674086
 30
0.0
 11
36.24999366249455
 21
23.25001122674086
 31
0.0
  0
ARC
  5
8F9
330
1F
100
AcDbEntity
  8
0
 62
     1
100
AcDbCircle
 10
23.24999366249456
 20
35.25001122674086
 30
0.0
 40
1.0
100
AcDbArc
 50
90.0
 51
180.0
  0
ARC
  5
8FA
330
1F
100
AcDbEntity
  8
0
 62
     1
100
AcDbCircle
 10
35.24999366249455
 20
35.25001122674086
 30
0.0
 40
1.0
100
AcDbArc
 50
0.0
 51
90.0
  0
ARC
  5
8FB
330
1F
100
AcDbEntity
  8
0
 62
     1
100
AcDbCircle
 10
23.24999366249456
 20
23.25001122674086
 30
0.0
 40
1.0
100
AcDbArc
 50
180.0
 51
270.0
  0
ARC
  5
8FC
330
1F
100
AcDbEntity
  8
0
 62
     1
100
AcDbCircle
 10
35.24999366249455
 20
23.25001122674086
 30
0.0
 40
1.0
100
AcDbArc
 50
270.0
 51
0.0
  0
LINE
  5
8FD
330
1F
100
AcDbEntity
  8
0
 62
     1
100
AcDbLine
 10
42.74999366249455
 20
36.25001122674086
 30
0.0
 11
54.74999366249455
 21
36.25001122674086
 31
0.0
  0
LINE
  5
8FE
330
1F
100
AcDbEntity
  8
0
 62
     1
100
AcDbLine
 10
42.74999366249455
 20
22.25001122674086
 30
0.0
 11
54.74999366249455
 21
22.25001122674086
 31
0.0
  0
LINE
  5
8FF
330
1F
100
AcDbEntity
  8
0
 62
     1
100
AcDbLine
 10
41.74999366249455
 20
35.25001122674086
 30
0.0
 11
41.74999366249455
 21
23.25001122674086
 31
0.0
  0
LINE
  5
900
330
1F
100
AcDbEntity
  8
0
 62
     1
100
AcDbLine
 10
55.74999366249455
 20
35.25001122674086
 30
0.0
 11
55.74999366249455
 21
23.25001122674086
 31
0.0
  0
ARC
  5
901
330
1F
100
AcDbEntity
  8
0
 62
     1
100
AcDbCircle
 10
42.74999366249455
 20
35.25001122674086
 30
0.0
 40
1.0
100
AcDbArc
 50
90.0
 51
180.0
  0
ARC
  5
902
330
1F
100
AcDbEntity
  8
0
 62
     1
100
AcDbCircle
 10
54.74999366249455
 20
35.25001122674086
 30
0.0
 40
1.0
100
AcDbArc
 50
0.0
 51
90.0
  0
ARC
  5
903
330
1F
100
AcDbEntity
  8
0
 62
     1
100
AcDbCircle
 10
42.74999366249455
 20
23.25001122674086
 30
0.0
 40
1.0
100
AcDbArc
 50
180.0
 51
270.0
  0
ARC
  5
904
330
1F
100
AcDbEntity
  8
0
 62
     1
100
AcDbCircle
 10
54.74999366249455
 20
23.25001122674086
 30
0.0
 40
1.0
100
AcDbArc
 50
270.0
 51
0.0
  0
LINE
  5
905
330
1F
100
AcDbEntity
  8
0
 62
     1
100
AcDbLine
 10
62.24999366249455
 20
36.25001122674086
 30
0.0
 11
74.24999366249456
 21
36.25001122674086
 31
0.0
  0
LINE
  5
906
330
1F
100
AcDbEntity
  8
0
 62
     1
100
AcDbLine
 10
62.24999366249455
 20
22.25001122674086
 30
0.0
 11
74.24999366249456
 21
22.25001122674086
 31
0.0
  0
LINE
  5
907
330
1F
100
AcDbEntity
  8
0
 62
     1
100
AcDbLine
 10
61.24999366249455
 20
35.25001122674086
 30
0.0
 11
61.24999366249455
 21
23.25001122674086
 31
0.0
  0
LINE
  5
908
330
1F
100
AcDbEntity
  8
0
 62
     1
100
AcDbLine
 10
75.24999366249456
 20
35.25001122674086
 30
0.0
 11
75.24999366249456
 21
23.25001122674086
 31
0.0
  0
ARC
  5
909
330
1F
100
AcDbEntity
  8
0
 62
     1
100
AcDbCircle
 10
62.24999366249455
 20
35.25001122674086
 30
0.0
 40
1.0
100
AcDbArc
 50
90.0
 51
180.0
  0
ARC
  5
90A
330
1F
100
AcDbEntity
  8
0
 62
     1
100
AcDbCircle
 10
74.24999366249456
 20
35.25001122674086
 30
0.0
 40
1.0
100
AcDbArc
 50
0.0
 51
90.0
  0
ARC
  5
90B
330
1F
100
AcDbEntity
  8
0
 62
     1
100
AcDbCircle
 10
62.24999366249455
 20
23.25001122674086
 30
0.0
 40
1.0
100
AcDbArc
 50
180.0
 51
270.0
  0
ARC
  5
90C
330
1F
100
AcDbEntity
  8
0
 62
     1
100
AcDbCircle
 10
74.24999366249456
 20
23.25001122674086
 30
0.0
 40
1.0
100
AcDbArc
 50
270.0
 51
0.0
  0
LINE
  5
90D
330
1F
100
AcDbEntity
  8
0
 62
     1
100
AcDbLine
 10
3.749993662494556
 20
16.75001122674086
 30
0.0
 11
15.74999366249456
 21
16.75001122674086
 31
0.0
  0
LINE
  5
90E
330
1F
100
AcDbEntity
  8
0
 62
     1
100
AcDbLine
 10
3.749993662494556
 20
2.750011226740858
 30
0.0
 11
15.74999366249456
 21
2.750011226740858
 31
0.0
  0
LINE
  5
90F
330
1F
100
AcDbEntity
  8
0
 62
     1
100
AcDbLine
 10
2.749993662494556
 20
15.75001122674086
 30
0.0
 11
2.749993662494556
 21
3.750011226740858
 31
0.0
  0
LINE
  5
910
330
1F
100
AcDbEntity
  8
0
 62
     1
100
AcDbLine
 10
16.74999366249456
 20
15.75001122674086
 30
0.0
 11
16.74999366249456
 21
3.750011226740858
 31
0.0
  0
ARC
  5
911
330
1F
100
AcDbEntity
  8
0
 62
     1
100
AcDbCircle
 10
3.749993662494556
 20
15.75001122674086
 30
0.0
 40
1.0
100
AcDbArc
 50
90.0
 51
180.0
  0
ARC
  5
912
330
1F
100
AcDbEntity
  8
0
 62
     1
100
AcDbCircle
 10
15.74999366249456
 20
15.75001122674086
 30
0.0
 40
1.0
100
AcDbArc
 50
0.0
 51
90.0
  0
ARC
  5
913
330
1F
100
AcDbEntity
  8
0
 62
     1
100
AcDbCircle
 10
3.749993662494556
 20
3.750011226740858
 30
0.0
 40
1.0
100
AcDbArc
 50
180.0
 51
270.0
  0
ARC
  5
914
330
1F
100
AcDbEntity
  8
0
 62
     1
100
AcDbCircle
 10
15.74999366249456
 20
3.750011226740858
 30
0.0
 40
1.0
100
AcDbArc
 50
270.0
 51
0.0
  0
LINE
  5
915
330
1F
100
AcDbEntity
  8
0
 62
     1
100
AcDbLine
 10
23.24999366249456
 20
16.75001122674086
 30
0.0
 11
35.24999366249455
 21
16.75001122674086
 31
0.0
  0
LINE
  5
916
330
1F
100
AcDbEntity
  8
0
 62
     1
100
AcDbLine
 10
23.24999366249456
 20
2.750011226740858
 30
0.0
 11
35.24999366249455
 21
2.750011226740858
 31
0.0
  0
LINE
  5
917
330
1F
100
AcDbEntity
  8
0
 62
     1
100
AcDbLine
 10
22.24999366249456
 20
15.75001122674086
 30
0.0
 11
22.24999366249456
 21
3.750011226740858
 31
0.0
  0
LINE
  5
918
330
1F
100
AcDbEntity
  8
0
 62
     1
100
AcDbLine
 10
36.24999366249455
 20
15.75001122674086
 30
0.0
 11
36.24999366249455
 21
3.750011226740858
 31
0.0
  0
ARC
  5
919
330
1F
100
AcDbEntity
  8
0
 62
     1
100
AcDbCircle
 10
23.24999366249456
 20
15.75001122674086
 30
0.0
 40
1.0
100
AcDbArc
 50
90.0
 51
180.0
  0
ARC
  5
91A
330
1F
100
AcDbEntity
  8
0
 62
     1
100
AcDbCircle
 10
35.24999366249455
 20
15.75001122674086
 30
0.0
 40
1.0
100
AcDbArc
 50
0.0
 51
90.0
  0
ARC
  5
91B
330
1F
100
AcDbEntity
  8
0
 62
     1
100
AcDbCircle
 10
23.24999366249456
 20
3.750011226740858
 30
0.0
 40
1.0
100
AcDbArc
 50
180.0
 51
270.0
  0
ARC
  5
91C
330
1F
100
AcDbEntity
  8
0
 62
     1
100
AcDbCircle
 10
35.24999366249455
 20
3.750011226740858
 30
0.0
 40
1.0
100
AcDbArc
 50
270.0
 51
0.0
  0
LINE
  5
91D
330
1F
100
AcDbEntity
  8
0
 62
     1
100
AcDbLine
 10
42.74999366249455
 20
16.75001122674086
 30
0.0
 11
54.74999366249455
 21
16.75001122674086
 31
0.0
  0
LINE
  5
91E
330
1F
100
AcDbEntity
  8
0
 62
     1
100
AcDbLine
 10
42.74999366249455
 20
2.750011226740858
 30
0.0
 11
54.74999366249455
 21
2.750011226740858
 31
0.0
  0
LINE
  5
91F
330
1F
100
AcDbEntity
  8
0
 62
     1
100
AcDbLine
 10
41.74999366249455
 20
15.75001122674086
 30
0.0
 11
41.74999366249455
 21
3.750011226740858
 31
0.0
  0
LINE
  5
920
330
1F
100
AcDbEntity
  8
0
 62
     1
100
AcDbLine
 10
55.74999366249455
 20
15.75001122674086
 30
0.0
 11
55.74999366249455
 21
3.750011226740858
 31
0.0
  0
ARC
  5
921
330
1F
100
AcDbEntity
  8
0
 62
     1
100
AcDbCircle
 10
42.74999366249455
 20
15.75001122674086
 30
0.0
 40
1.0
100
AcDbArc
 50
90.0
 51
180.0
  0
ARC
  5
922
330
1F
100
AcDbEntity
  8
0
 62
     1
100
AcDbCircle
 10
54.74999366249455
 20
15.75001122674086
 30
0.0
 40
1.0
100
AcDbArc
 50
0.0
 51
90.0
  0
ARC
  5
923
330
1F
100
AcDbEntity
  8
0
 62
     1
100
AcDbCircle
 10
42.74999366249455
 20
3.750011226740858
 30
0.0
 40
1.0
100
AcDbArc
 50
180.0
 51
270.0
  0
ARC
  5
924
330
1F
100
AcDbEntity
  8
0
 62
     1
100
AcDbCircle
 10
54.74999366249455
 20
3.750011226740858
 30
0.0
 40
1.0
100
AcDbArc
 50
270.0
 51
0.0
  0
LINE
  5
925
330
1F
100
AcDbEntity
  8
0
 62
     1
100
AcDbLine
 10
62.24999366249455
 20
16.75001122674086
 30
0.0
 11
74.24999366249456
 21
16.75001122674086
 31
0.0
  0
LINE
  5
926
330
1F
100
AcDbEntity
  8
0
 62
     1
100
AcDbLine
 10
62.24999366249455
 20
2.750011226740858
 30
0.0
 11
74.24999366249456
 21
2.750011226740858
 31
0.0
  0
LINE
  5
927
330
1F
100
AcDbEntity
  8
0
 62
     1
100
AcDbLine
 10
61.24999366249455
 20
15.75001122674086
 30
0.0
 11
61.24999366249455
 21
3.750011226740858
 31
0.0
  0
LINE
  5
928
330
1F
100
AcDbEntity
  8
0
 62
     1
100
AcDbLine
 10
75.24999366249456
 20
15.75001122674086
 30
0.0
 11
75.24999366249456
 21
3.750011226740858
 31
0.0
  0
ARC
  5
929
330
1F
100
AcDbEntity
  8
0
 62
     1
100
AcDbCircle
 10
62.24999366249455
 20
15.75001122674086
 30
0.0
 40
1.0
100
AcDbArc
 50
90.0
 51
180.0
  0
ARC
  5
92A
330
1F
100
AcDbEntity
  8
0
 62
     1
100
AcDbCircle
 10
74.24999366249456
 20
15.75001122674086
 30
0.0
 40
1.0
100
AcDbArc
 50
0.0
 51
90.0
  0
ARC
  5
92B
330
1F
100
AcDbEntity
  8
0
 62
     1
100
AcDbCircle
 10
62.24999366249455
 20
3.750011226740858
 30
0.0
 40
1.0
100
AcDbArc
 50
180.0
 51
270.0
  0
ARC
  5
92C
330
1F
100
AcDbEntity
  8
0
 62
     1
100
AcDbCircle
 10
74.24999366249456
 20
3.750011226740858
 30
0.0
 40
1.0
100
AcDbArc
 50
270.0
 51
0.0
  0
LINE
  5
92D
330
1F
100
AcDbEntity
  8
0
 62
     1
100
AcDbLine
 10
-0.0000063375054444
 20
78.00001122674085
 30
0.0
 11
77.99999366249456
 21
78.00001122674085
 31
0.0
  0
LINE
  5
92E
330
1F
100
AcDbEntity
  8
0
 62
     1
100
AcDbLine
 10
-0.0000063375054444
 20
0.000011226740858
 30
0.0
 11
77.99999366249456
 21
0.000011226740858
 31
0.0
  0
LINE
  5
92F
330
1F
100
AcDbEntity
  8
0
 62
     1
100
AcDbLine
 10
-0.0000063375054444
 20
78.00001122674085
 30
0.0
 11
-0.0000063375054444
 21
0.000011226740858
 31
0.0
  0
LINE
  5
930
330
1F
100
AcDbEntity
  8
0
 62
     1
100
AcDbLine
 10
77.99999366249456
 20
78.00001122674085
 30
0.0
 11
77.99999366249456
 21
0.000011226740858
 31
0.0
  0
CIRCLE
  5
93F
330
1F
100
AcDbEntity
  8
0
 62
     1
100
AcDbCircle
 10
19.49999366249456
 20
58.50001122674086
 30
0.0
 40
1.0
  0
CIRCLE
  5
940
330
1F
100
AcDbEntity
  8
0
 62
     1
100
AcDbCircle
 10
58.49999366249455
 20
58.50001122674086
 30
0.0
 40
1.0
  0
CIRCLE
  5
941
330
1F
100
AcDbEntity
  8
0
 62
     1
100
AcDbCircle
 10
58.49999366249455
 20
19.50001122674086
 30
0.0
 40
1.0
  0
CIRCLE
  5
942
330
1F
100
AcDbEntity
  8
0
 62
     1
100
AcDbCircle
 10
19.49999366249456
 20
19.50001122674086
 30
0.0
 40
1.0
  0
ENDSEC
  0
SECTION
  2
OBJECTS
  0
DICTIONARY
  5
C
330
0
100
AcDbDictionary
  3
ACAD_DETAILVIEWSTYLE
350
648
  3
ACAD_GROUP
350
4E2
  3
ACAD_MLINESTYLE
350
4E6
  3
ACAD_SCALELIST
350
948
  3
ACAD_SECTIONVIEWSTYLE
350
649
  3
ACDBVARIABLEDICTIONARY
350
643
  3
APPDATA
350
630
  3
DWGPROPS
350
993
  0
DICTIONARY
  5
648
102
{ACAD_REACTORS
330
C
102
}
330
C
100
AcDbDictionary
  0
DICTIONARY
  5
4E2
330
C
100
AcDbDictionary
  0
DICTIONARY
  5
4E6
330
C
100
AcDbDictionary
  3
STANDARD
350
5F0
  0
DICTIONARY
  5
948
102
{ACAD_REACTORS
330
C
102
}
330
C
100
AcDbDictionary
  0
DICTIONARY
  5
649
102
{ACAD_REACTORS
330
C
102
}
330
C
100
AcDbDictionary
  0
DICTIONARY
  5
643
102
{ACAD_REACTORS
330
C
102
}
330
C
100
AcDbDictionary
  0
DICTIONARY
  5
630
102
{ACAD_REACTORS
330
C
102
}
330
C
100
AcDbDictionary
  0
XRECORD
  5
993
102
{ACAD_REACTORS
330
C
102
}
330
C
100
AcDbXrecord
  1
DWGPROPS COOKIE
  2

  3

  4

  6

  7

  8
azami
  9

300
=
301
=
302
=
303
=
304
=
305
=
306
=
307
=
308
=
309
=
 40
0.0
 41
2458430.756261574
 42
2458431.63137934
  1

 90
        0
  0
MLINESTYLE
  5
5F0
102
{ACAD_REACTORS
330
4E6
102
}
330
4E6
100
AcDbMlineStyle
  2
Standard
 70
     0
  3

 62
   256
 51
90.0
 52
90.0
 71
     2
 49
0.5
 62
   256
  6
BYLAYER
 49
-0.5
 62
   256
  6
BYLAYER
  0
ENDSEC
  0
EOF
